<?xml version="1.0" encoding="UTF-8" standalone="no"?>
<!DOCTYPE svg PUBLIC "-//W3C//DTD SVG 1.1//EN" "http://www.w3.org/Graphics/SVG/1.1/DTD/svg11.dtd">
<svg width="100%" height="100%" viewBox="0 0 1009 487" version="1.1" xmlns="http://www.w3.org/2000/svg" xmlns:xlink="http://www.w3.org/1999/xlink" xml:space="preserve" xmlns:serif="http://www.serif.com/" style="fill-rule:evenodd;clip-rule:evenodd;stroke-linejoin:round;stroke-miterlimit:2;">
    <g transform="matrix(1,0,0,1,0,-506.748)">
        <g id="Artboard2" transform="matrix(0.672667,0,0,0.324337,-1042.63,506.748)">
            <rect x="1550" y="0" width="1500" height="1500" style="fill:none;"/>
            <clipPath id="_clip1">
                <rect x="1550" y="0" width="1500" height="1500"/>
            </clipPath>
            <g clip-path="url(#_clip1)">
                <g transform="matrix(1.48662,0,0,3.08322,-1049.76,-429.076)">
                    <g transform="matrix(3.27921,0,0,3.27921,99.7965,-303.702)">
                        <g transform="matrix(81,0,0,81,498.678,195.171)">
                            <path d="M0.528,-0.238L0.406,-0.238L0.406,-0.227C0.406,-0.156 0.363,-0.099 0.289,-0.099C0.213,-0.099 0.173,-0.156 0.173,-0.227L0.173,-0.483C0.173,-0.553 0.214,-0.611 0.288,-0.611C0.36,-0.611 0.403,-0.555 0.403,-0.486L0.403,-0.481L0.525,-0.481L0.525,-0.485C0.525,-0.618 0.436,-0.726 0.288,-0.726C0.14,-0.726 0.052,-0.617 0.052,-0.483L0.052,-0.227C0.052,-0.093 0.14,0.016 0.289,0.016C0.438,0.016 0.528,-0.093 0.528,-0.227L0.528,-0.238Z" style="fill:rgb(52,73,94);fill-rule:nonzero;"/>
                        </g>
                        <g transform="matrix(81,0,0,81,544.605,195.171)">
                            <path d="M0.413,-0.71L0.413,-0.226C0.413,-0.154 0.371,-0.099 0.299,-0.099C0.226,-0.099 0.185,-0.154 0.185,-0.226L0.185,-0.71L0.063,-0.71L0.063,-0.227C0.063,-0.091 0.152,0.016 0.299,0.016C0.446,0.016 0.535,-0.091 0.535,-0.227L0.535,-0.71L0.413,-0.71Z" style="fill:rgb(52,73,94);fill-rule:nonzero;"/>
                        </g>
                    </g>
                    <g transform="matrix(1,0,0,1,1617.94,124.607)">
                        <g transform="matrix(265.616,0,0,265.616,777.539,211.696)">
                            <path d="M0.432,-0.71L0.283,-0.191L0.132,-0.71L0.004,-0.71L0.223,0L0.342,0L0.561,-0.71L0.432,-0.71Z" style="fill:rgb(52,73,94);fill-rule:nonzero;"/>
                        </g>
                        <g transform="matrix(265.616,0,0,265.616,928.94,211.696)">
                            <rect x="0.069" y="-0.71" width="0.122" height="0.71" style="fill:rgb(52,73,94);fill-rule:nonzero;"/>
                        </g>
                        <g transform="matrix(265.616,0,0,265.616,998.328,211.696)">
                            <path d="M0.069,-0.71L0.069,0L0.289,0C0.443,0 0.533,-0.101 0.533,-0.235L0.533,-0.474C0.533,-0.609 0.443,-0.71 0.289,-0.71L0.069,-0.71ZM0.19,-0.595L0.289,-0.595C0.367,-0.595 0.411,-0.545 0.411,-0.474L0.411,-0.234C0.411,-0.165 0.367,-0.115 0.289,-0.115L0.19,-0.115L0.19,-0.595Z" style="fill:rgb(52,73,94);fill-rule:nonzero;"/>
                        </g>
                    </g>
                    <g transform="matrix(0.998196,0,0,1.1121,813.425,-396.74)">
                        <path d="M1519.71,645.132L1438.62,645.132L1411.78,666.841L1384.93,645.132L1303.85,645.132C1289.34,645.132 1277.59,634.493 1277.59,621.371L1277.59,505.648C1277.59,492.524 1289.34,481.886 1303.85,481.886L1519.71,481.886C1534.21,481.886 1545.97,492.524 1545.97,505.648L1545.97,621.371C1545.97,634.493 1534.21,645.132 1519.71,645.132" style="fill:rgb(90,212,188);fill-rule:nonzero;"/>
                        <path d="M1447.16,572.693L1395,599.943C1388.34,603.421 1380.02,599.074 1380.02,592.118L1380.02,537.618C1380.02,530.663 1388.34,526.315 1395,529.793L1447.16,557.043C1453.82,560.521 1453.82,569.216 1447.16,572.693" style="fill:white;fill-rule:nonzero;"/>
                        <g opacity="0.1">
                            <g>
                                <clipPath id="_clip2">
                                    <rect x="1381.3" y="571.04" width="68.16" height="30.13"/>
                                </clipPath>
                                <g clip-path="url(#_clip2)">
                                    <clipPath id="_clip3">
                                        <rect x="1381.3" y="571.045" width="68.161" height="30.121"/>
                                    </clipPath>
                                    <g clip-path="url(#_clip3)">
                                        <path d="M1381.3,596.552C1383.88,600.689 1389.92,602.595 1395,599.943L1447.16,572.693C1448.05,572.23 1448.81,571.668 1449.46,571.045L1381.3,596.552Z" style="fill-rule:nonzero;"/>
                                    </g>
                                </g>
                            </g>
                        </g>
                    </g>
                    <g transform="matrix(0.499674,0,0,0.499674,803.262,352.564)">
                        <g transform="matrix(265.616,0,0,265.616,1876.31,542.776)">
                            <path d="M0.507,-0.228L0.435,-0.228L0.435,-0.218C0.435,-0.121 0.378,-0.053 0.283,-0.053C0.188,-0.053 0.131,-0.122 0.131,-0.22L0.131,-0.49C0.131,-0.589 0.187,-0.657 0.282,-0.657C0.375,-0.657 0.433,-0.593 0.433,-0.502L0.433,-0.499L0.504,-0.499L0.504,-0.502C0.504,-0.631 0.419,-0.724 0.282,-0.724C0.144,-0.724 0.06,-0.626 0.06,-0.491L0.06,-0.219C0.06,-0.085 0.146,0.014 0.283,0.014C0.421,0.014 0.507,-0.084 0.507,-0.218L0.507,-0.228Z" style="fill:rgb(52,73,94);fill-rule:nonzero;"/>
                        </g>
                        <g transform="matrix(265.616,0,0,265.616,2042.32,542.776)">
                            <path d="M0.349,-0.532L0.349,-0.175C0.349,-0.098 0.308,-0.052 0.239,-0.052C0.168,-0.052 0.13,-0.098 0.13,-0.175L0.13,-0.532L0.063,-0.532L0.063,-0.165C0.063,-0.062 0.125,0.012 0.227,0.012C0.286,0.012 0.329,-0.014 0.354,-0.057L0.354,0L0.416,0L0.416,-0.532L0.349,-0.532Z" style="fill:rgb(52,73,94);fill-rule:nonzero;"/>
                        </g>
                        <g transform="matrix(265.616,0,0,265.616,2191.33,542.776)">
                            <path d="M0.267,-0.544C0.202,-0.544 0.156,-0.514 0.129,-0.464L0.129,-0.532L0.067,-0.532L0.067,0L0.134,0L0.134,-0.331C0.134,-0.421 0.183,-0.472 0.258,-0.472L0.285,-0.472L0.285,-0.544L0.267,-0.544Z" style="fill:rgb(52,73,94);fill-rule:nonzero;"/>
                        </g>
                        <g transform="matrix(265.616,0,0,265.616,2292.53,542.776)">
                            <path d="M0.267,-0.544C0.202,-0.544 0.156,-0.514 0.129,-0.464L0.129,-0.532L0.067,-0.532L0.067,0L0.134,0L0.134,-0.331C0.134,-0.421 0.183,-0.472 0.258,-0.472L0.285,-0.472L0.285,-0.544L0.267,-0.544Z" style="fill:rgb(52,73,94);fill-rule:nonzero;"/>
                        </g>
                        <g transform="matrix(265.616,0,0,265.616,2393.73,542.776)">
                            <path d="M0.14,-0.724L0.062,-0.724L0.062,-0.637L0.14,-0.637L0.14,-0.724ZM0.134,-0.532L0.067,-0.532L0.067,0L0.134,0L0.134,-0.532Z" style="fill:rgb(52,73,94);fill-rule:nonzero;"/>
                        </g>
                        <g transform="matrix(265.616,0,0,265.616,2467.83,542.776)">
                            <path d="M0.343,-0.363L0.41,-0.363L0.41,-0.372C0.41,-0.471 0.342,-0.544 0.231,-0.544C0.12,-0.544 0.053,-0.466 0.053,-0.357L0.053,-0.175C0.053,-0.068 0.119,0.012 0.231,0.012C0.344,0.012 0.412,-0.062 0.412,-0.162L0.412,-0.171L0.345,-0.171L0.345,-0.163C0.345,-0.099 0.304,-0.052 0.231,-0.052C0.159,-0.052 0.12,-0.104 0.12,-0.177L0.12,-0.355C0.12,-0.429 0.16,-0.48 0.231,-0.48C0.302,-0.48 0.343,-0.434 0.343,-0.37L0.343,-0.363Z" style="fill:rgb(52,73,94);fill-rule:nonzero;"/>
                        </g>
                        <g transform="matrix(265.616,0,0,265.616,2608.87,542.776)">
                            <path d="M0.349,-0.532L0.349,-0.175C0.349,-0.098 0.308,-0.052 0.239,-0.052C0.168,-0.052 0.13,-0.098 0.13,-0.175L0.13,-0.532L0.063,-0.532L0.063,-0.165C0.063,-0.062 0.125,0.012 0.227,0.012C0.286,0.012 0.329,-0.014 0.354,-0.057L0.354,0L0.416,0L0.416,-0.532L0.349,-0.532Z" style="fill:rgb(52,73,94);fill-rule:nonzero;"/>
                        </g>
                        <g transform="matrix(265.616,0,0,265.616,2757.89,542.776)">
                            <rect x="0.067" y="-0.729" width="0.067" height="0.729" style="fill:rgb(52,73,94);fill-rule:nonzero;"/>
                        </g>
                        <g transform="matrix(265.616,0,0,265.616,2831.99,542.776)">
                            <path d="M0.349,-0.532L0.349,-0.175C0.349,-0.098 0.308,-0.052 0.239,-0.052C0.168,-0.052 0.13,-0.098 0.13,-0.175L0.13,-0.532L0.063,-0.532L0.063,-0.165C0.063,-0.062 0.125,0.012 0.227,0.012C0.286,0.012 0.329,-0.014 0.354,-0.057L0.354,0L0.416,0L0.416,-0.532L0.349,-0.532Z" style="fill:rgb(52,73,94);fill-rule:nonzero;"/>
                        </g>
                        <g transform="matrix(265.616,0,0,265.616,2981,542.776)">
                            <path d="M0.666,0L0.666,-0.377C0.666,-0.475 0.605,-0.544 0.505,-0.544C0.444,-0.544 0.402,-0.519 0.377,-0.477C0.352,-0.519 0.308,-0.544 0.25,-0.544C0.194,-0.544 0.154,-0.52 0.129,-0.48L0.129,-0.532L0.067,-0.532L0.067,0L0.134,0L0.134,-0.365C0.134,-0.437 0.171,-0.48 0.233,-0.48C0.299,-0.48 0.333,-0.439 0.333,-0.37L0.333,0L0.4,0L0.4,-0.365C0.4,-0.437 0.437,-0.48 0.499,-0.48C0.565,-0.48 0.599,-0.439 0.599,-0.37L0.599,0L0.666,0Z" style="fill:rgb(52,73,94);fill-rule:nonzero;"/>
                        </g>
                        <g transform="matrix(265.616,0,0,265.616,3272.38,542.776)">
                            <path d="M0.448,-0.71L0.267,-0.113L0.085,-0.71L0.01,-0.71L0.232,0L0.302,0L0.523,-0.71L0.448,-0.71Z" style="fill:rgb(52,73,94);fill-rule:nonzero;"/>
                        </g>
                        <g transform="matrix(265.616,0,0,265.616,3433.35,542.776)">
                            <path d="M0.14,-0.724L0.062,-0.724L0.062,-0.637L0.14,-0.637L0.14,-0.724ZM0.134,-0.532L0.067,-0.532L0.067,0L0.134,0L0.134,-0.532Z" style="fill:rgb(52,73,94);fill-rule:nonzero;"/>
                        </g>
                        <g transform="matrix(265.616,0,0,265.616,3507.45,542.776)">
                            <path d="M0.347,-0.729L0.347,-0.49C0.321,-0.524 0.282,-0.544 0.225,-0.544C0.12,-0.544 0.053,-0.466 0.053,-0.357L0.053,-0.175C0.053,-0.066 0.12,0.012 0.225,0.012C0.285,0.012 0.327,-0.014 0.352,-0.056L0.352,0L0.414,0L0.414,-0.729L0.347,-0.729ZM0.347,-0.173C0.347,-0.102 0.306,-0.052 0.234,-0.052C0.161,-0.052 0.12,-0.103 0.12,-0.177L0.12,-0.355C0.12,-0.429 0.161,-0.48 0.234,-0.48C0.306,-0.48 0.347,-0.429 0.347,-0.359L0.347,-0.173Z" style="fill:rgb(52,73,94);fill-rule:nonzero;"/>
                        </g>
                        <g transform="matrix(265.616,0,0,265.616,3655.67,542.776)">
                            <path d="M0.355,-0.172L0.355,-0.163C0.355,-0.099 0.313,-0.052 0.238,-0.052C0.162,-0.052 0.12,-0.104 0.12,-0.177L0.12,-0.249L0.419,-0.249L0.419,-0.358C0.419,-0.466 0.351,-0.544 0.236,-0.544C0.121,-0.544 0.053,-0.466 0.053,-0.357L0.053,-0.175C0.053,-0.068 0.122,0.012 0.238,0.012C0.353,0.012 0.422,-0.062 0.422,-0.162L0.422,-0.172L0.355,-0.172ZM0.236,-0.48C0.311,-0.48 0.352,-0.429 0.352,-0.356L0.352,-0.311L0.12,-0.311L0.12,-0.355C0.12,-0.429 0.161,-0.48 0.236,-0.48L0.236,-0.48Z" style="fill:rgb(52,73,94);fill-rule:nonzero;"/>
                        </g>
                        <g transform="matrix(265.616,0,0,265.616,3800.69,542.776)">
                            <path d="M0.236,-0.544C0.121,-0.544 0.053,-0.466 0.053,-0.357L0.053,-0.175C0.053,-0.066 0.121,0.012 0.236,0.012C0.351,0.012 0.419,-0.066 0.419,-0.175L0.419,-0.357C0.419,-0.466 0.351,-0.544 0.236,-0.544ZM0.352,-0.355L0.352,-0.177C0.352,-0.103 0.311,-0.052 0.236,-0.052C0.161,-0.052 0.12,-0.103 0.12,-0.177L0.12,-0.355C0.12,-0.429 0.161,-0.48 0.236,-0.48C0.311,-0.48 0.352,-0.429 0.352,-0.355Z" style="fill:rgb(52,73,94);fill-rule:nonzero;"/>
                        </g>
                    </g>
                    <g transform="matrix(1.19908,0,0,1.22383,559.498,-437.596)">
                        <rect x="994.324" y="708.27" width="835.833" height="11.38" style="fill:rgb(240,133,111);fill-rule:nonzero;"/>
                    </g>
                    <g transform="matrix(1,0,0,1,-409,-313.827)">
                        <g transform="matrix(1.09849,0,0,1.22383,851.886,-123.768)">
                            <path d="M1650.7,713.96C1650.7,729.251 1637,741.647 1620.09,741.647C1603.19,741.647 1589.49,729.251 1589.49,713.96C1589.49,698.668 1603.19,686.272 1620.09,686.272C1637,686.272 1650.7,698.668 1650.7,713.96" style="fill:white;fill-rule:nonzero;"/>
                        </g>
                        <g transform="matrix(1.09849,0,0,1.22383,848.819,-126.861)">
                            <g opacity="0.1">
                                <g>
                                    <clipPath id="_clip4">
                                        <rect x="1595.08" y="691.33" width="55.62" height="50.32"/>
                                    </clipPath>
                                    <g clip-path="url(#_clip4)">
                                        <clipPath id="_clip5">
                                            <rect x="1595.08" y="691.325" width="55.62" height="50.322"/>
                                        </clipPath>
                                        <g clip-path="url(#_clip5)">
                                            <path d="M1637.71,691.325C1641.22,695.833 1643.29,701.326 1643.29,707.261C1643.29,722.552 1629.59,734.948 1612.69,734.948C1606.13,734.948 1600.06,733.075 1595.08,729.896C1600.62,737.001 1609.75,741.647 1620.1,741.647C1637,741.647 1650.7,729.251 1650.7,713.96C1650.7,704.603 1645.56,696.336 1637.71,691.325" style="fill-rule:nonzero;"/>
                                        </g>
                                    </g>
                                </g>
                            </g>
                        </g>
                        <g transform="matrix(1.09849,0,0,1.22383,623.053,-123.768)">
                            <path d="M1828.53,680.582C1829.2,680.585 1829.86,680.602 1830.53,680.637C1831.84,680.704 1833.15,680.835 1834.45,681.03C1837.72,681.521 1840.92,682.417 1843.93,683.689C1845.94,684.539 1847.87,685.555 1849.68,686.721C1851.84,688.109 1853.84,689.709 1855.62,691.486C1857.11,692.967 1858.45,694.571 1859.62,696.272C1860.81,697.989 1861.82,699.806 1862.64,701.692C1863.68,704.066 1864.41,706.551 1864.82,709.08C1865.51,713.344 1865.29,717.729 1864.16,721.914C1863.5,724.371 1862.52,726.757 1861.27,729.009C1860.56,730.27 1859.77,731.488 1858.9,732.656C1857.49,734.539 1855.88,736.288 1854.09,737.87C1852.66,739.129 1851.13,740.282 1849.5,741.314C1847.5,742.587 1845.36,743.677 1843.12,744.563C1840.91,745.438 1838.6,746.113 1836.25,746.576C1833.72,747.076 1831.12,747.329 1828.53,747.336C1826.32,747.342 1824.1,747.17 1821.92,746.818C1819.1,746.362 1816.34,745.604 1813.7,744.562C1811.8,743.81 1809.97,742.911 1808.24,741.877C1806.27,740.706 1804.42,739.362 1802.74,737.87C1799.83,735.305 1797.39,732.301 1795.56,729.007C1794.3,726.755 1793.33,724.37 1792.66,721.914C1792.26,720.422 1791.98,718.904 1791.8,717.374C1791.45,714.269 1791.58,711.118 1792.19,708.046C1792.6,705.941 1793.24,703.873 1794.1,701.883C1794.85,700.117 1795.78,698.412 1796.85,696.79C1798.07,694.953 1799.48,693.225 1801.05,691.636C1803.07,689.599 1805.37,687.791 1807.87,686.265C1809.4,685.326 1811.02,684.493 1812.69,683.776C1815.69,682.487 1818.88,681.574 1822.15,681.065C1823.44,680.863 1824.75,680.724 1826.06,680.649C1826.68,680.613 1827.31,680.593 1827.94,680.585C1828.13,680.583 1828.33,680.582 1828.53,680.582ZM1828.33,691.962C1827.83,691.964 1827.33,691.978 1826.83,692.007C1826.01,692.054 1825.19,692.139 1824.37,692.261C1822.2,692.587 1820.07,693.181 1818.07,694.027C1815.15,695.262 1812.5,697.029 1810.32,699.2C1808.35,701.16 1806.77,703.444 1805.69,705.92C1805.1,707.259 1804.67,708.652 1804.39,710.071C1803.86,712.769 1803.88,715.56 1804.47,718.248C1804.8,719.747 1805.3,721.213 1805.97,722.614C1807.03,724.854 1808.51,726.922 1810.32,728.719C1812.4,730.79 1814.9,732.494 1817.67,733.718C1819.28,734.433 1820.98,734.984 1822.73,735.359C1824.59,735.758 1826.5,735.957 1828.41,735.957C1830.32,735.957 1832.23,735.758 1834.1,735.359C1835.84,734.984 1837.54,734.433 1839.15,733.718C1842.09,732.417 1844.74,730.573 1846.89,728.323C1847.73,727.456 1848.48,726.53 1849.15,725.555C1849.96,724.39 1850.64,723.155 1851.19,721.872C1851.84,720.359 1852.3,718.778 1852.56,717.169C1852.96,714.683 1852.89,712.133 1852.35,709.668C1852.07,708.389 1851.66,707.133 1851.14,705.922C1850.6,704.684 1849.93,703.491 1849.15,702.364C1848.38,701.239 1847.49,700.179 1846.51,699.2C1845.32,698.021 1844,696.96 1842.57,696.039C1841.37,695.265 1840.09,694.591 1838.75,694.027C1836.75,693.181 1834.63,692.587 1832.45,692.261C1831.14,692.065 1829.82,691.968 1828.49,691.962C1828.44,691.962 1828.38,691.962 1828.33,691.962Z" style="fill:rgb(240,133,111);fill-rule:nonzero;"/>
                        </g>
                    </g>
                    <g transform="matrix(1,0,0,1,85.8072,-313.827)">
                        <g transform="matrix(1.09849,0,0,1.22383,851.886,-123.768)">
                            <path d="M1650.7,713.96C1650.7,729.251 1637,741.647 1620.09,741.647C1603.19,741.647 1589.49,729.251 1589.49,713.96C1589.49,698.668 1603.19,686.272 1620.09,686.272C1637,686.272 1650.7,698.668 1650.7,713.96" style="fill:white;fill-rule:nonzero;"/>
                        </g>
                        <g transform="matrix(1.09849,0,0,1.22383,848.819,-126.861)">
                            <g opacity="0.1">
                                <g>
                                    <clipPath id="_clip6">
                                        <rect x="1595.08" y="691.33" width="55.62" height="50.32"/>
                                    </clipPath>
                                    <g clip-path="url(#_clip6)">
                                        <clipPath id="_clip7">
                                            <rect x="1595.08" y="691.325" width="55.62" height="50.322"/>
                                        </clipPath>
                                        <g clip-path="url(#_clip7)">
                                            <path d="M1637.71,691.325C1641.22,695.833 1643.29,701.326 1643.29,707.261C1643.29,722.552 1629.59,734.948 1612.69,734.948C1606.13,734.948 1600.06,733.075 1595.08,729.896C1600.62,737.001 1609.75,741.647 1620.1,741.647C1637,741.647 1650.7,729.251 1650.7,713.96C1650.7,704.603 1645.56,696.336 1637.71,691.325" style="fill-rule:nonzero;"/>
                                        </g>
                                    </g>
                                </g>
                            </g>
                        </g>
                        <g transform="matrix(1.09849,0,0,1.22383,623.053,-123.768)">
                            <path d="M1828.53,680.582C1829.2,680.585 1829.86,680.602 1830.53,680.637C1831.84,680.704 1833.15,680.835 1834.45,681.03C1837.72,681.521 1840.92,682.417 1843.93,683.689C1845.94,684.539 1847.87,685.555 1849.68,686.721C1851.84,688.109 1853.84,689.709 1855.62,691.486C1857.11,692.967 1858.45,694.571 1859.62,696.272C1860.81,697.989 1861.82,699.806 1862.64,701.692C1863.68,704.066 1864.41,706.551 1864.82,709.08C1865.51,713.344 1865.29,717.729 1864.16,721.914C1863.5,724.371 1862.52,726.757 1861.27,729.009C1860.56,730.27 1859.77,731.488 1858.9,732.656C1857.49,734.539 1855.88,736.288 1854.09,737.87C1852.66,739.129 1851.13,740.282 1849.5,741.314C1847.5,742.587 1845.36,743.677 1843.12,744.563C1840.91,745.438 1838.6,746.113 1836.25,746.576C1833.72,747.076 1831.12,747.329 1828.53,747.336C1826.32,747.342 1824.1,747.17 1821.92,746.818C1819.1,746.362 1816.34,745.604 1813.7,744.562C1811.8,743.81 1809.97,742.911 1808.24,741.877C1806.27,740.706 1804.42,739.362 1802.74,737.87C1799.83,735.305 1797.39,732.301 1795.56,729.007C1794.3,726.755 1793.33,724.37 1792.66,721.914C1792.26,720.422 1791.98,718.904 1791.8,717.374C1791.45,714.269 1791.58,711.118 1792.19,708.046C1792.6,705.941 1793.24,703.873 1794.1,701.883C1794.85,700.117 1795.78,698.412 1796.85,696.79C1798.07,694.953 1799.48,693.225 1801.05,691.636C1803.07,689.599 1805.37,687.791 1807.87,686.265C1809.4,685.326 1811.02,684.493 1812.69,683.776C1815.69,682.487 1818.88,681.574 1822.15,681.065C1823.44,680.863 1824.75,680.724 1826.06,680.649C1826.68,680.613 1827.31,680.593 1827.94,680.585C1828.13,680.583 1828.33,680.582 1828.53,680.582ZM1828.33,691.962C1827.83,691.964 1827.33,691.978 1826.83,692.007C1826.01,692.054 1825.19,692.139 1824.37,692.261C1822.2,692.587 1820.07,693.181 1818.07,694.027C1815.15,695.262 1812.5,697.029 1810.32,699.2C1808.35,701.16 1806.77,703.444 1805.69,705.92C1805.1,707.259 1804.67,708.652 1804.39,710.071C1803.86,712.769 1803.88,715.56 1804.47,718.248C1804.8,719.747 1805.3,721.213 1805.97,722.614C1807.03,724.854 1808.51,726.922 1810.32,728.719C1812.4,730.79 1814.9,732.494 1817.67,733.718C1819.28,734.433 1820.98,734.984 1822.73,735.359C1824.59,735.758 1826.5,735.957 1828.41,735.957C1830.32,735.957 1832.23,735.758 1834.1,735.359C1835.84,734.984 1837.54,734.433 1839.15,733.718C1842.09,732.417 1844.74,730.573 1846.89,728.323C1847.73,727.456 1848.48,726.53 1849.15,725.555C1849.96,724.39 1850.64,723.155 1851.19,721.872C1851.84,720.359 1852.3,718.778 1852.56,717.169C1852.96,714.683 1852.89,712.133 1852.35,709.668C1852.07,708.389 1851.66,707.133 1851.14,705.922C1850.6,704.684 1849.93,703.491 1849.15,702.364C1848.38,701.239 1847.49,700.179 1846.51,699.2C1845.32,698.021 1844,696.96 1842.57,696.039C1841.37,695.265 1840.09,694.591 1838.75,694.027C1836.75,693.181 1834.63,692.587 1832.45,692.261C1831.14,692.065 1829.82,691.968 1828.49,691.962C1828.44,691.962 1828.38,691.962 1828.33,691.962Z" style="fill:rgb(240,133,111);fill-rule:nonzero;"/>
                        </g>
                    </g>
                    <g transform="matrix(1,0,0,1,-842.345,-313.827)">
                        <g transform="matrix(1.09849,0,0,1.22383,851.886,-123.768)">
                            <path d="M1650.7,713.96C1650.7,729.251 1637,741.647 1620.09,741.647C1603.19,741.647 1589.49,729.251 1589.49,713.96C1589.49,698.668 1603.19,686.272 1620.09,686.272C1637,686.272 1650.7,698.668 1650.7,713.96" style="fill:white;fill-rule:nonzero;"/>
                        </g>
                        <g transform="matrix(1.09849,0,0,1.22383,848.819,-126.861)">
                            <g opacity="0.1">
                                <g>
                                    <clipPath id="_clip8">
                                        <rect x="1595.08" y="691.33" width="55.62" height="50.32"/>
                                    </clipPath>
                                    <g clip-path="url(#_clip8)">
                                        <clipPath id="_clip9">
                                            <rect x="1595.08" y="691.325" width="55.62" height="50.322"/>
                                        </clipPath>
                                        <g clip-path="url(#_clip9)">
                                            <path d="M1637.71,691.325C1641.22,695.833 1643.29,701.326 1643.29,707.261C1643.29,722.552 1629.59,734.948 1612.69,734.948C1606.13,734.948 1600.06,733.075 1595.08,729.896C1600.62,737.001 1609.75,741.647 1620.1,741.647C1637,741.647 1650.7,729.251 1650.7,713.96C1650.7,704.603 1645.56,696.336 1637.71,691.325" style="fill-rule:nonzero;"/>
                                        </g>
                                    </g>
                                </g>
                            </g>
                        </g>
                        <g transform="matrix(1.09849,0,0,1.22383,623.053,-123.768)">
                            <path d="M1828.53,680.582C1829.2,680.585 1829.86,680.602 1830.53,680.637C1831.84,680.704 1833.15,680.835 1834.45,681.03C1837.72,681.521 1840.92,682.417 1843.93,683.689C1845.94,684.539 1847.87,685.555 1849.68,686.721C1851.84,688.109 1853.84,689.709 1855.62,691.486C1857.11,692.967 1858.45,694.571 1859.62,696.272C1860.81,697.989 1861.82,699.806 1862.64,701.692C1863.68,704.066 1864.41,706.551 1864.82,709.08C1865.51,713.344 1865.29,717.729 1864.16,721.914C1863.5,724.371 1862.52,726.757 1861.27,729.009C1860.56,730.27 1859.77,731.488 1858.9,732.656C1857.49,734.539 1855.88,736.288 1854.09,737.87C1852.66,739.129 1851.13,740.282 1849.5,741.314C1847.5,742.587 1845.36,743.677 1843.12,744.563C1840.91,745.438 1838.6,746.113 1836.25,746.576C1833.72,747.076 1831.12,747.329 1828.53,747.336C1826.32,747.342 1824.1,747.17 1821.92,746.818C1819.1,746.362 1816.34,745.604 1813.7,744.562C1811.8,743.81 1809.97,742.911 1808.24,741.877C1806.27,740.706 1804.42,739.362 1802.74,737.87C1799.83,735.305 1797.39,732.301 1795.56,729.007C1794.3,726.755 1793.33,724.37 1792.66,721.914C1792.26,720.422 1791.98,718.904 1791.8,717.374C1791.45,714.269 1791.58,711.118 1792.19,708.046C1792.6,705.941 1793.24,703.873 1794.1,701.883C1794.85,700.117 1795.78,698.412 1796.85,696.79C1798.07,694.953 1799.48,693.225 1801.05,691.636C1803.07,689.599 1805.37,687.791 1807.87,686.265C1809.4,685.326 1811.02,684.493 1812.69,683.776C1815.69,682.487 1818.88,681.574 1822.15,681.065C1823.44,680.863 1824.75,680.724 1826.06,680.649C1826.68,680.613 1827.31,680.593 1827.94,680.585C1828.13,680.583 1828.33,680.582 1828.53,680.582ZM1828.33,691.962C1827.83,691.964 1827.33,691.978 1826.83,692.007C1826.01,692.054 1825.19,692.139 1824.37,692.261C1822.2,692.587 1820.07,693.181 1818.07,694.027C1815.15,695.262 1812.5,697.029 1810.32,699.2C1808.35,701.16 1806.77,703.444 1805.69,705.92C1805.1,707.259 1804.67,708.652 1804.39,710.071C1803.86,712.769 1803.88,715.56 1804.47,718.248C1804.8,719.747 1805.3,721.213 1805.97,722.614C1807.03,724.854 1808.51,726.922 1810.32,728.719C1812.4,730.79 1814.9,732.494 1817.67,733.718C1819.28,734.433 1820.98,734.984 1822.73,735.359C1824.59,735.758 1826.5,735.957 1828.41,735.957C1830.32,735.957 1832.23,735.758 1834.1,735.359C1835.84,734.984 1837.54,734.433 1839.15,733.718C1842.09,732.417 1844.74,730.573 1846.89,728.323C1847.73,727.456 1848.48,726.53 1849.15,725.555C1849.96,724.39 1850.64,723.155 1851.19,721.872C1851.84,720.359 1852.3,718.778 1852.56,717.169C1852.96,714.683 1852.89,712.133 1852.35,709.668C1852.07,708.389 1851.66,707.133 1851.14,705.922C1850.6,704.684 1849.93,703.491 1849.15,702.364C1848.38,701.239 1847.49,700.179 1846.51,699.2C1845.32,698.021 1844,696.96 1842.57,696.039C1841.37,695.265 1840.09,694.591 1838.75,694.027C1836.75,693.181 1834.63,692.587 1832.45,692.261C1831.14,692.065 1829.82,691.968 1828.49,691.962C1828.44,691.962 1828.38,691.962 1828.33,691.962Z" style="fill:rgb(240,133,111);fill-rule:nonzero;"/>
                        </g>
                    </g>
                    <g transform="matrix(1,0,0,1,-618.472,-313.827)">
                        <g transform="matrix(1.09849,0,0,1.22383,851.886,-123.768)">
                            <path d="M1650.7,713.96C1650.7,729.251 1637,741.647 1620.09,741.647C1603.19,741.647 1589.49,729.251 1589.49,713.96C1589.49,698.668 1603.19,686.272 1620.09,686.272C1637,686.272 1650.7,698.668 1650.7,713.96" style="fill:white;fill-rule:nonzero;"/>
                        </g>
                        <g transform="matrix(1.09849,0,0,1.22383,848.819,-126.861)">
                            <g opacity="0.1">
                                <g>
                                    <clipPath id="_clip10">
                                        <rect x="1595.08" y="691.33" width="55.62" height="50.32"/>
                                    </clipPath>
                                    <g clip-path="url(#_clip10)">
                                        <clipPath id="_clip11">
                                            <rect x="1595.08" y="691.325" width="55.62" height="50.322"/>
                                        </clipPath>
                                        <g clip-path="url(#_clip11)">
                                            <path d="M1637.71,691.325C1641.22,695.833 1643.29,701.326 1643.29,707.261C1643.29,722.552 1629.59,734.948 1612.69,734.948C1606.13,734.948 1600.06,733.075 1595.08,729.896C1600.62,737.001 1609.75,741.647 1620.1,741.647C1637,741.647 1650.7,729.251 1650.7,713.96C1650.7,704.603 1645.56,696.336 1637.71,691.325" style="fill-rule:nonzero;"/>
                                        </g>
                                    </g>
                                </g>
                            </g>
                        </g>
                        <g transform="matrix(1.09849,0,0,1.22383,623.053,-123.768)">
                            <path d="M1828.53,680.582C1829.2,680.585 1829.86,680.602 1830.53,680.637C1831.84,680.704 1833.15,680.835 1834.45,681.03C1837.72,681.521 1840.92,682.417 1843.93,683.689C1845.94,684.539 1847.87,685.555 1849.68,686.721C1851.84,688.109 1853.84,689.709 1855.62,691.486C1857.11,692.967 1858.45,694.571 1859.62,696.272C1860.81,697.989 1861.82,699.806 1862.64,701.692C1863.68,704.066 1864.41,706.551 1864.82,709.08C1865.51,713.344 1865.29,717.729 1864.16,721.914C1863.5,724.371 1862.52,726.757 1861.27,729.009C1860.56,730.27 1859.77,731.488 1858.9,732.656C1857.49,734.539 1855.88,736.288 1854.09,737.87C1852.66,739.129 1851.13,740.282 1849.5,741.314C1847.5,742.587 1845.36,743.677 1843.12,744.563C1840.91,745.438 1838.6,746.113 1836.25,746.576C1833.72,747.076 1831.12,747.329 1828.53,747.336C1826.32,747.342 1824.1,747.17 1821.92,746.818C1819.1,746.362 1816.34,745.604 1813.7,744.562C1811.8,743.81 1809.97,742.911 1808.24,741.877C1806.27,740.706 1804.42,739.362 1802.74,737.87C1799.83,735.305 1797.39,732.301 1795.56,729.007C1794.3,726.755 1793.33,724.37 1792.66,721.914C1792.26,720.422 1791.98,718.904 1791.8,717.374C1791.45,714.269 1791.58,711.118 1792.19,708.046C1792.6,705.941 1793.24,703.873 1794.1,701.883C1794.85,700.117 1795.78,698.412 1796.85,696.79C1798.07,694.953 1799.48,693.225 1801.05,691.636C1803.07,689.599 1805.37,687.791 1807.87,686.265C1809.4,685.326 1811.02,684.493 1812.69,683.776C1815.69,682.487 1818.88,681.574 1822.15,681.065C1823.44,680.863 1824.75,680.724 1826.06,680.649C1826.68,680.613 1827.31,680.593 1827.94,680.585C1828.13,680.583 1828.33,680.582 1828.53,680.582ZM1828.33,691.962C1827.83,691.964 1827.33,691.978 1826.83,692.007C1826.01,692.054 1825.19,692.139 1824.37,692.261C1822.2,692.587 1820.07,693.181 1818.07,694.027C1815.15,695.262 1812.5,697.029 1810.32,699.2C1808.35,701.16 1806.77,703.444 1805.69,705.92C1805.1,707.259 1804.67,708.652 1804.39,710.071C1803.86,712.769 1803.88,715.56 1804.47,718.248C1804.8,719.747 1805.3,721.213 1805.97,722.614C1807.03,724.854 1808.51,726.922 1810.32,728.719C1812.4,730.79 1814.9,732.494 1817.67,733.718C1819.28,734.433 1820.98,734.984 1822.73,735.359C1824.59,735.758 1826.5,735.957 1828.41,735.957C1830.32,735.957 1832.23,735.758 1834.1,735.359C1835.84,734.984 1837.54,734.433 1839.15,733.718C1842.09,732.417 1844.74,730.573 1846.89,728.323C1847.73,727.456 1848.48,726.53 1849.15,725.555C1849.96,724.39 1850.64,723.155 1851.19,721.872C1851.84,720.359 1852.3,718.778 1852.56,717.169C1852.96,714.683 1852.89,712.133 1852.35,709.668C1852.07,708.389 1851.66,707.133 1851.14,705.922C1850.6,704.684 1849.93,703.491 1849.15,702.364C1848.38,701.239 1847.49,700.179 1846.51,699.2C1845.32,698.021 1844,696.96 1842.57,696.039C1841.37,695.265 1840.09,694.591 1838.75,694.027C1836.75,693.181 1834.63,692.587 1832.45,692.261C1831.14,692.065 1829.82,691.968 1828.49,691.962C1828.44,691.962 1828.38,691.962 1828.33,691.962Z" style="fill:rgb(240,133,111);fill-rule:nonzero;"/>
                        </g>
                    </g>
                    <g transform="matrix(1,0,0,1,-160.29,-313.827)">
                        <g transform="matrix(1.09849,0,0,1.22383,851.886,-123.768)">
                            <path d="M1650.7,713.96C1650.7,729.251 1637,741.647 1620.09,741.647C1603.19,741.647 1589.49,729.251 1589.49,713.96C1589.49,698.668 1603.19,686.272 1620.09,686.272C1637,686.272 1650.7,698.668 1650.7,713.96" style="fill:white;fill-rule:nonzero;"/>
                        </g>
                        <g transform="matrix(1.09849,0,0,1.22383,848.819,-126.861)">
                            <g opacity="0.1">
                                <g>
                                    <clipPath id="_clip12">
                                        <rect x="1595.08" y="691.33" width="55.62" height="50.32"/>
                                    </clipPath>
                                    <g clip-path="url(#_clip12)">
                                        <clipPath id="_clip13">
                                            <rect x="1595.08" y="691.325" width="55.62" height="50.322"/>
                                        </clipPath>
                                        <g clip-path="url(#_clip13)">
                                            <path d="M1637.71,691.325C1641.22,695.833 1643.29,701.326 1643.29,707.261C1643.29,722.552 1629.59,734.948 1612.69,734.948C1606.13,734.948 1600.06,733.075 1595.08,729.896C1600.62,737.001 1609.75,741.647 1620.1,741.647C1637,741.647 1650.7,729.251 1650.7,713.96C1650.7,704.603 1645.56,696.336 1637.71,691.325" style="fill-rule:nonzero;"/>
                                        </g>
                                    </g>
                                </g>
                            </g>
                        </g>
                        <g transform="matrix(1.09849,0,0,1.22383,623.053,-123.768)">
                            <path d="M1828.53,680.582C1829.2,680.585 1829.86,680.602 1830.53,680.637C1831.84,680.704 1833.15,680.835 1834.45,681.03C1837.72,681.521 1840.92,682.417 1843.93,683.689C1845.94,684.539 1847.87,685.555 1849.68,686.721C1851.84,688.109 1853.84,689.709 1855.62,691.486C1857.11,692.967 1858.45,694.571 1859.62,696.272C1860.81,697.989 1861.82,699.806 1862.64,701.692C1863.68,704.066 1864.41,706.551 1864.82,709.08C1865.51,713.344 1865.29,717.729 1864.16,721.914C1863.5,724.371 1862.52,726.757 1861.27,729.009C1860.56,730.27 1859.77,731.488 1858.9,732.656C1857.49,734.539 1855.88,736.288 1854.09,737.87C1852.66,739.129 1851.13,740.282 1849.5,741.314C1847.5,742.587 1845.36,743.677 1843.12,744.563C1840.91,745.438 1838.6,746.113 1836.25,746.576C1833.72,747.076 1831.12,747.329 1828.53,747.336C1826.32,747.342 1824.1,747.17 1821.92,746.818C1819.1,746.362 1816.34,745.604 1813.7,744.562C1811.8,743.81 1809.97,742.911 1808.24,741.877C1806.27,740.706 1804.42,739.362 1802.74,737.87C1799.83,735.305 1797.39,732.301 1795.56,729.007C1794.3,726.755 1793.33,724.37 1792.66,721.914C1792.26,720.422 1791.98,718.904 1791.8,717.374C1791.45,714.269 1791.58,711.118 1792.19,708.046C1792.6,705.941 1793.24,703.873 1794.1,701.883C1794.85,700.117 1795.78,698.412 1796.85,696.79C1798.07,694.953 1799.48,693.225 1801.05,691.636C1803.07,689.599 1805.37,687.791 1807.87,686.265C1809.4,685.326 1811.02,684.493 1812.69,683.776C1815.69,682.487 1818.88,681.574 1822.15,681.065C1823.44,680.863 1824.75,680.724 1826.06,680.649C1826.68,680.613 1827.31,680.593 1827.94,680.585C1828.13,680.583 1828.33,680.582 1828.53,680.582ZM1828.33,691.962C1827.83,691.964 1827.33,691.978 1826.83,692.007C1826.01,692.054 1825.19,692.139 1824.37,692.261C1822.2,692.587 1820.07,693.181 1818.07,694.027C1815.15,695.262 1812.5,697.029 1810.32,699.2C1808.35,701.16 1806.77,703.444 1805.69,705.92C1805.1,707.259 1804.67,708.652 1804.39,710.071C1803.86,712.769 1803.88,715.56 1804.47,718.248C1804.8,719.747 1805.3,721.213 1805.97,722.614C1807.03,724.854 1808.51,726.922 1810.32,728.719C1812.4,730.79 1814.9,732.494 1817.67,733.718C1819.28,734.433 1820.98,734.984 1822.73,735.359C1824.59,735.758 1826.5,735.957 1828.41,735.957C1830.32,735.957 1832.23,735.758 1834.1,735.359C1835.84,734.984 1837.54,734.433 1839.15,733.718C1842.09,732.417 1844.74,730.573 1846.89,728.323C1847.73,727.456 1848.48,726.53 1849.15,725.555C1849.96,724.39 1850.64,723.155 1851.19,721.872C1851.84,720.359 1852.3,718.778 1852.56,717.169C1852.96,714.683 1852.89,712.133 1852.35,709.668C1852.07,708.389 1851.66,707.133 1851.14,705.922C1850.6,704.684 1849.93,703.491 1849.15,702.364C1848.38,701.239 1847.49,700.179 1846.51,699.2C1845.32,698.021 1844,696.96 1842.57,696.039C1841.37,695.265 1840.09,694.591 1838.75,694.027C1836.75,693.181 1834.63,692.587 1832.45,692.261C1831.14,692.065 1829.82,691.968 1828.49,691.962C1828.44,691.962 1828.38,691.962 1828.33,691.962Z" style="fill:rgb(240,133,111);fill-rule:nonzero;"/>
                        </g>
                    </g>
                </g>
            </g>
        </g>
    </g>
</svg>
